<?xml version="1.0" encoding="UTF-8"?>
<svg xmlns="http://www.w3.org/2000/svg" viewBox="0 0 256 256" width="256" height="256">
  <!-- Connecting lines -->
  <g stroke="#6C5B8A" stroke-width="3" fill="none" stroke-linecap="round">
    <path d="M128 78 L64 138"/>
    <path d="M128 78 L128 138"/>
    <path d="M128 78 L192 138"/>
    <path d="M64 178 L64 200"/>
    <path d="M128 178 L128 200"/>
    <path d="M192 178 L192 200"/>
  </g>
  <!-- Root node -->
  <g>
    <rect x="88" y="40" width="80" height="40" rx="6" ry="6" fill="#352F44" stroke="#352F44"/>
    <line x1="88" y1="54" x2="168" y2="54" stroke="#FFFFFF" stroke-width="1.5" opacity="0.5"/>
    <circle cx="98" cy="47" r="2" fill="#8FBCEB"/>
    <line x1="106" y1="47" x2="160" y2="47" stroke="#FFFFFF" stroke-width="1.2" opacity="0.7"/>
    <line x1="96" y1="62" x2="160" y2="62" stroke="#FFFFFF" stroke-width="1" opacity="0.55"/>
    <line x1="96" y1="70" x2="150" y2="70" stroke="#FFFFFF" stroke-width="1" opacity="0.45"/>
  </g>
  <!-- Child nodes -->
  <g>
    <rect x="32" y="140" width="64" height="40" rx="5" ry="5" fill="#5B4B7A" stroke="#5B4B7A"/>
    <line x1="32" y1="152" x2="96" y2="152" stroke="#FFFFFF" stroke-width="1.2" opacity="0.5"/>
    <line x1="40" y1="160" x2="88" y2="160" stroke="#FFFFFF" stroke-width="1" opacity="0.55"/>
    <line x1="40" y1="168" x2="82" y2="168" stroke="#FFFFFF" stroke-width="1" opacity="0.45"/>
  </g>
  <g>
    <rect x="96" y="140" width="64" height="40" rx="5" ry="5" fill="#5B4B7A" stroke="#5B4B7A"/>
    <line x1="96" y1="152" x2="160" y2="152" stroke="#FFFFFF" stroke-width="1.2" opacity="0.5"/>
    <line x1="104" y1="160" x2="152" y2="160" stroke="#FFFFFF" stroke-width="1" opacity="0.55"/>
    <line x1="104" y1="168" x2="146" y2="168" stroke="#FFFFFF" stroke-width="1" opacity="0.45"/>
  </g>
  <g>
    <rect x="160" y="140" width="64" height="40" rx="5" ry="5" fill="#5B4B7A" stroke="#5B4B7A"/>
    <line x1="160" y1="152" x2="224" y2="152" stroke="#FFFFFF" stroke-width="1.2" opacity="0.5"/>
    <line x1="168" y1="160" x2="216" y2="160" stroke="#FFFFFF" stroke-width="1" opacity="0.55"/>
    <line x1="168" y1="168" x2="210" y2="168" stroke="#FFFFFF" stroke-width="1" opacity="0.45"/>
  </g>
  <!-- Leaf nodes -->
  <g fill="#8FBCEB">
    <circle cx="64" cy="210" r="7"/>
    <circle cx="128" cy="210" r="7"/>
    <circle cx="192" cy="210" r="7"/>
  </g>
</svg>
