<svg width="223" height="98" viewBox="0 0 273 98" fill="none" xmlns="http://www.w3.org/2000/svg">
<path fill-rule="evenodd" clip-rule="evenodd" d="M99.9004 30.8199H104.535V61.0292H124.2V65.66H99.9004V30.8199" fill="#000000"/>
<mask id="mask0_0_1166" style="mask-type:alpha" maskUnits="userSpaceOnUse" x="0" y="29" width="95" height="38">
<path fill-rule="evenodd" clip-rule="evenodd" d="M0 29.9594H94.1058V66.9612H0V29.9594Z" fill="#000000"/>
</mask>
<g mask="url(#mask0_0_1166)">
<path fill-rule="evenodd" clip-rule="evenodd" d="M0 65.7302H24.1195V61.1935H4.63309V50.6355H14.4067V46.0814H4.63309V35.5111H24.1195V30.9265H0V65.7302" fill="#000000"/>
<path fill-rule="evenodd" clip-rule="evenodd" d="M82.8082 46.2514C77.111 44.9641 71.463 44.3198 71.463 39.9623C71.463 35.3571 75.4269 33.9209 79.39 33.9209C83.682 33.9209 86.8089 35.6268 87.8543 39.5114H92.4634C91.4945 32.8976 86.2885 29.9594 79.5888 29.9594C73.1466 29.9594 66.7562 33.1285 66.7562 40.3084C66.7562 46.7981 72.4527 48.4302 78.1007 49.6683C83.75 50.9072 89.3973 51.7488 89.3973 56.6018C89.3973 61.7019 84.6918 63.0397 80.4308 63.0397C75.599 63.0397 71.1025 60.9289 70.2721 56.147H65.751C66.5445 63.6251 72.8715 67 80.2826 67C86.7235 67 94.1062 63.9803 94.1062 56.453C94.1062 49.5202 88.4575 47.5381 82.8082 46.2514" fill="#000000"/>
</g>
<path fill-rule="evenodd" clip-rule="evenodd" d="M31.0498 30.8199V65.66H35.8159L35.8392 38.4561L47.3729 54.6765L58.7156 38.5656L58.7203 65.66H63.4498V30.8199H58.4282L47.3596 46.6194L36.2005 30.8199H31.0498" fill="#000000"/>
<path fill-rule="evenodd" clip-rule="evenodd" d="M130.883 5.49314C130.883 5.49314 130.891 5.58561 130.894 5.61879C131.357 5.28101 131.893 4.88938 131.893 4.88938C132.401 4.50211 133.036 4.28508 133.676 4.28508C134.529 4.28508 135.319 4.65821 135.843 5.30984C136.233 5.7923 136.441 6.38518 136.441 7.00525C136.441 7.10969 136.434 7.21466 136.424 7.32019C136.341 8.05775 135.958 8.75615 135.37 9.23589C135.37 9.23589 134.871 9.66668 134.457 10.0246C134.832 10.1192 135.215 10.184 135.608 10.184C138.213 10.184 140.333 8.07951 140.333 5.49314C140.333 2.90786 138.213 0.803955 135.608 0.803955C133.002 0.803955 130.883 2.90786 130.883 5.49314" fill="#000000"/>
<path fill-rule="evenodd" clip-rule="evenodd" d="M141.75 17.4197C141.75 18.4303 141.957 19.4063 142.276 20.3563C143.076 19.5121 144.9 17.5896 144.9 17.5896C145.628 16.7617 146.736 16.2779 147.925 16.2779C149.066 16.2779 150.211 16.706 151.149 17.481C152.02 18.2011 152.634 19.168 152.879 20.2026C153.167 21.4374 152.903 22.6836 152.153 23.6194C152.161 23.6095 150.714 25.5624 149.906 26.6498C150.341 26.7112 150.779 26.8 151.2 26.8C156.411 26.8 160.65 22.5919 160.65 17.4197C160.65 12.2475 156.411 8.04004 151.2 8.04004C145.989 8.04004 141.75 12.2475 141.75 17.4197" fill="#000000"/>
<path fill-rule="evenodd" clip-rule="evenodd" d="M123.509 19.2443C122.89 19.8075 122.664 20.6711 123.016 21.1296C123.033 21.1534 127.768 28.1586 127.768 28.1586L127.551 28.4569C127.179 28.9684 126.844 29.5133 126.555 30.0758C125.625 31.8878 125.134 33.9443 125.134 36.0259C125.134 42.7614 130.167 48.24 136.352 48.24C142.536 48.24 147.57 42.7614 147.57 36.0259C147.57 33.9429 147.079 31.8851 146.149 30.0758C145.862 29.5147 145.525 28.9705 145.154 28.4575L144.937 28.1593L149.672 21.1534C150.04 20.6711 149.814 19.8075 149.194 19.2443C148.576 18.6818 147.755 18.5969 147.403 19.0561L141.913 25.4091L141.603 25.2311C141.08 24.9274 140.526 24.6679 139.961 24.46C138.795 24.0293 137.58 23.8098 136.352 23.8098C135.123 23.8098 133.91 24.0293 132.745 24.46C132.174 24.6699 131.621 24.9295 131.101 25.2311L130.79 25.4105L125.318 19.0779C125.139 18.8455 124.908 18.7817 124.742 18.7654C124.345 18.726 123.885 18.906 123.509 19.2443" fill="#000000"/>
<path fill-rule="evenodd" clip-rule="evenodd" d="M133.819 6.62799C133.695 6.46614 133.551 6.36499 133.274 6.36499C133.025 6.36499 132.758 6.57741 132.508 6.78856C132.324 6.94598 127.485 10.6924 126.988 11.0768L126.818 10.9105C126.415 10.5129 125.968 10.1569 125.488 9.85221C124.242 9.0607 122.822 8.64281 121.381 8.64281C116.981 8.64281 113.4 12.4145 113.4 17.0511C113.4 21.6876 116.981 25.46 121.381 25.46C121.736 25.46 122.107 25.3803 122.472 25.3253C121.885 24.4845 120.566 22.5968 120.566 22.5968C120.092 21.9696 119.862 21.2148 119.862 20.4378C119.862 19.2461 120.402 18.0057 121.422 17.1061L121.514 17.0309C122.328 16.3708 123.246 16.0276 124.148 16.0276C124.98 16.0276 125.774 16.3285 126.383 16.876C126.383 16.8779 126.704 17.2047 126.704 17.2047C126.704 17.2047 128.13 18.801 128.918 19.6829C129.187 18.832 129.362 17.957 129.362 17.0511C129.362 16.1603 129.224 15.2695 128.953 14.406C128.781 13.8585 128.549 13.3205 128.263 12.8096L128.14 12.5903C128.767 12.0188 133.414 7.77543 133.685 7.51496C134.01 7.20266 133.94 6.78477 133.819 6.62799" fill="#000000"/>
<path d="M184.287 14.0007H179.937V17.5886H184.99V18.6803H178.613V8.55627H184.921V9.6549H179.937V12.909H184.287V14.0007Z" fill="#000000"/>
<path d="M187.703 11.1568L187.745 12.1024C188.011 11.764 188.333 11.4986 188.71 11.3063C189.087 11.1139 189.51 11.0177 189.978 11.0177C190.341 11.0177 190.67 11.0675 190.964 11.1672C191.258 11.2669 191.509 11.4268 191.716 11.647C191.922 11.8672 192.082 12.1499 192.195 12.4953C192.307 12.8406 192.364 13.259 192.364 13.7503V18.6802H191.088V13.7364C191.088 13.4444 191.056 13.1952 190.992 12.989C190.927 12.7827 190.832 12.6146 190.706 12.4848C190.579 12.3551 190.423 12.26 190.237 12.1998C190.051 12.1395 189.836 12.1094 189.592 12.1094C189.179 12.1094 188.816 12.2206 188.503 12.4431C188.191 12.6656 187.947 12.9577 187.772 13.3192V18.6802H186.497V11.1568H187.703Z" fill="#000000"/>
<path d="M196.806 16.9349L198.654 11.1567H199.956L197.282 18.6802H196.31L193.607 11.1567H194.91L196.806 16.9349Z" fill="#000000"/>
<path fill-rule="evenodd" clip-rule="evenodd" d="M201.44 8.63279C201.313 8.77649 201.25 8.95264 201.25 9.16124C201.25 9.36984 201.313 9.54367 201.44 9.68274C201.566 9.8218 201.753 9.89134 202.001 9.89134C202.25 9.89134 202.438 9.8218 202.567 9.68274C202.695 9.54367 202.76 9.36984 202.76 9.16124C202.76 8.95264 202.695 8.77649 202.567 8.63279C202.438 8.48909 202.25 8.41724 202.001 8.41724C201.753 8.41724 201.566 8.48909 201.44 8.63279ZM201.353 18.6803H202.629V11.1568H201.353V18.6803Z" fill="#000000"/>
<path d="M208.333 12.311C208.223 12.2925 208.12 12.2797 208.026 12.2728C207.932 12.2658 207.825 12.2623 207.706 12.2623C207.264 12.2623 206.905 12.3597 206.627 12.5544C206.349 12.7491 206.141 13.011 206.003 13.3401V18.6802H204.728V11.1568H205.968L205.989 12.0259C206.182 11.7153 206.423 11.4697 206.713 11.2889C207.002 11.1081 207.354 11.0177 207.768 11.0177C207.86 11.0177 207.965 11.0281 208.085 11.049C208.204 11.0698 208.287 11.0919 208.333 11.115V12.311Z" fill="#000000"/>
<path fill-rule="evenodd" clip-rule="evenodd" d="M209.326 13.3297C209.167 13.7955 209.088 14.302 209.088 14.849V15.0019C209.088 15.5489 209.167 16.0554 209.326 16.5212C209.484 16.9871 209.711 17.3904 210.005 17.7311C210.299 18.0718 210.655 18.3384 211.073 18.5307C211.491 18.7231 211.963 18.8193 212.486 18.8193C213.01 18.8193 213.481 18.7231 213.9 18.5307C214.318 18.3384 214.674 18.0718 214.968 17.7311C215.262 17.3904 215.488 16.9871 215.644 16.5212C215.8 16.0554 215.878 15.5489 215.878 15.0019V14.849C215.878 14.302 215.8 13.7955 215.644 13.3297C215.488 12.8638 215.262 12.4594 214.968 12.1163C214.674 11.7733 214.317 11.5044 213.896 11.3097C213.476 11.115 213.001 11.0177 212.473 11.0177C211.953 11.0177 211.485 11.115 211.066 11.3097C210.648 11.5044 210.293 11.7733 210.001 12.1163C209.709 12.4594 209.484 12.8638 209.326 13.3297ZM210.501 16.0658C210.414 15.732 210.37 15.3774 210.37 15.0019V14.849C210.37 14.4781 210.414 14.1247 210.501 13.7886C210.588 13.4525 210.721 13.1582 210.897 12.9055C211.074 12.6529 211.294 12.4512 211.556 12.3006C211.818 12.1499 212.123 12.0746 212.473 12.0746C212.827 12.0746 213.137 12.1499 213.403 12.3006C213.67 12.4512 213.892 12.6529 214.069 12.9055C214.246 13.1582 214.379 13.4525 214.468 13.7886C214.558 14.1247 214.603 14.4781 214.603 14.849V15.0019C214.603 15.3774 214.558 15.732 214.468 16.0658C214.379 16.3996 214.247 16.6927 214.072 16.9454C213.897 17.198 213.677 17.3985 213.41 17.5468C213.144 17.6952 212.836 17.7694 212.486 17.7694C212.133 17.7694 211.824 17.6952 211.559 17.5468C211.295 17.3985 211.074 17.198 210.897 16.9454C210.721 16.6927 210.588 16.3996 210.501 16.0658Z" fill="#000000"/>
<path d="M218.743 11.1568L218.784 12.1024C219.05 11.764 219.372 11.4986 219.749 11.3063C220.126 11.1139 220.549 11.0177 221.017 11.0177C221.381 11.0177 221.709 11.0675 222.003 11.1672C222.297 11.2669 222.548 11.4268 222.755 11.647C222.961 11.8672 223.121 12.1499 223.234 12.4953C223.346 12.8406 223.403 13.259 223.403 13.7503V18.6802H222.127V13.7364C222.127 13.4444 222.095 13.1952 222.031 12.989C221.966 12.7827 221.871 12.6146 221.745 12.4848C221.618 12.3551 221.462 12.26 221.276 12.1998C221.09 12.1395 220.875 12.1094 220.631 12.1094C220.218 12.1094 219.855 12.2206 219.542 12.4431C219.23 12.6656 218.986 12.9577 218.811 13.3192V18.6802H217.536V11.1568H218.743Z" fill="#000000"/>
<path d="M226.584 11.1568L226.619 11.9912C226.876 11.6852 227.188 11.4465 227.553 11.275C227.918 11.1035 228.345 11.0177 228.832 11.0177C229.314 11.0177 229.74 11.1139 230.11 11.3063C230.48 11.4986 230.764 11.8057 230.962 12.2276C231.21 11.866 231.533 11.574 231.93 11.3515C232.328 11.129 232.798 11.0177 233.34 11.0177C233.74 11.0177 234.094 11.0698 234.402 11.1741C234.71 11.2784 234.97 11.4419 235.184 11.6644C235.398 11.8869 235.56 12.1696 235.67 12.5127C235.78 12.8557 235.836 13.2636 235.836 13.7364V18.6802H234.56V13.7295C234.56 13.4143 234.522 13.1524 234.447 12.9438C234.371 12.7352 234.264 12.5683 234.126 12.4431C233.988 12.318 233.82 12.2311 233.623 12.1824C233.425 12.1337 233.207 12.1094 232.968 12.1094C232.706 12.1094 232.474 12.1511 232.272 12.2345C232.069 12.318 231.896 12.4304 231.751 12.5718C231.606 12.7131 231.491 12.88 231.406 13.0724C231.321 13.2648 231.267 13.4699 231.244 13.6878V18.6802H229.962V13.7364C229.962 13.4444 229.924 13.1952 229.848 12.989C229.773 12.7827 229.666 12.6146 229.528 12.4848C229.39 12.3551 229.223 12.26 229.028 12.1998C228.833 12.1395 228.613 12.1094 228.37 12.1094C227.915 12.1094 227.549 12.209 227.274 12.4084C226.998 12.6077 226.791 12.8673 226.653 13.1871V18.6802H225.378V11.1568H226.584Z" fill="#000000"/>
<path fill-rule="evenodd" clip-rule="evenodd" d="M239.504 18.5481C239.924 18.7289 240.394 18.8193 240.913 18.8193C241.286 18.8193 241.619 18.7787 241.913 18.6976C242.207 18.6165 242.468 18.5076 242.695 18.3708C242.923 18.2341 243.122 18.0788 243.292 17.9049C243.462 17.7311 243.607 17.5515 243.726 17.3661L242.947 16.7542C242.713 17.0601 242.439 17.3058 242.127 17.4912C241.814 17.6766 241.433 17.7694 240.982 17.7694C240.642 17.7694 240.338 17.7045 240.069 17.5747C239.8 17.4449 239.57 17.2687 239.38 17.0462C239.189 16.8237 239.042 16.5618 238.938 16.2605C238.835 15.9592 238.779 15.6347 238.769 15.287H243.823V14.7099C243.823 14.1815 243.763 13.6924 243.643 13.2428C243.524 12.7931 243.339 12.4037 243.088 12.0746C242.838 11.7455 242.52 11.487 242.134 11.2993C241.748 11.1116 241.288 11.0177 240.755 11.0177C240.332 11.0177 239.925 11.1046 239.535 11.2784C239.144 11.4523 238.797 11.7038 238.494 12.0329C238.19 12.362 237.948 12.7676 237.766 13.2497C237.585 13.7318 237.494 14.2788 237.494 14.8907V15.1827C237.494 15.7112 237.575 16.1979 237.735 16.6429C237.896 17.0879 238.126 17.4715 238.425 17.7937C238.724 18.1159 239.083 18.3673 239.504 18.5481ZM240.045 12.2171C240.261 12.1221 240.497 12.0746 240.755 12.0746C241.081 12.0746 241.355 12.1349 241.575 12.2554C241.796 12.3759 241.976 12.5335 242.116 12.7282C242.257 12.9229 242.36 13.1431 242.427 13.3888C242.493 13.6345 242.533 13.8825 242.547 14.1328V14.2301H238.811C238.852 13.8825 238.929 13.5742 239.042 13.3053C239.154 13.0365 239.296 12.8117 239.466 12.6309C239.636 12.4501 239.829 12.3122 240.045 12.2171Z" fill="#000000"/>
<path d="M246.563 11.1568L246.604 12.1024C246.871 11.764 247.192 11.4986 247.569 11.3063C247.946 11.1139 248.369 11.0177 248.838 11.0177C249.201 11.0177 249.529 11.0675 249.824 11.1672C250.118 11.2669 250.368 11.4268 250.575 11.647C250.782 11.8672 250.941 12.1499 251.054 12.4953C251.167 12.8406 251.223 13.259 251.223 13.7503V18.6802H249.948V13.7364C249.948 13.4444 249.915 13.1952 249.851 12.989C249.787 12.7827 249.691 12.6146 249.565 12.4848C249.439 12.3551 249.282 12.26 249.096 12.1998C248.91 12.1395 248.695 12.1094 248.452 12.1094C248.038 12.1094 247.675 12.2206 247.363 12.4431C247.05 12.6656 246.806 12.9577 246.632 13.3192V18.6802H245.356V11.1568H246.563Z" fill="#000000"/>
<path d="M254.935 9.33508V11.1568H256.328V12.1512H254.935V16.8168C254.935 17.0115 254.958 17.168 255.004 17.2862C255.05 17.4044 255.111 17.4959 255.187 17.5608C255.263 17.6257 255.35 17.6686 255.449 17.6895C255.548 17.7103 255.65 17.7208 255.755 17.7208C255.861 17.7208 255.973 17.7103 256.09 17.6895C256.207 17.6686 256.298 17.6512 256.362 17.6373V18.6803C256.261 18.7081 256.13 18.7383 255.969 18.7707C255.808 18.8032 255.613 18.8194 255.383 18.8194C255.149 18.8194 254.927 18.7858 254.718 18.7186C254.509 18.6513 254.326 18.5389 254.17 18.3813C254.014 18.2237 253.89 18.0163 253.798 17.759C253.706 17.5017 253.66 17.1854 253.66 16.8099V12.1512H252.302V11.1568H253.66V9.33508H254.935Z" fill="#000000"/>
<path fill-rule="evenodd" clip-rule="evenodd" d="M262.37 18.3291C262.398 18.4705 262.435 18.5875 262.481 18.6802H263.818V18.569C263.731 18.365 263.665 18.1228 263.622 17.8424C263.578 17.5619 263.556 17.2942 263.556 17.0393V13.5417C263.556 13.1199 263.487 12.7514 263.349 12.4362C263.212 12.121 263.021 11.8579 262.777 11.647C262.534 11.4361 262.241 11.2784 261.898 11.1741C261.556 11.0698 261.182 11.0177 260.778 11.0177C260.328 11.0177 259.92 11.0838 259.554 11.2159C259.189 11.348 258.878 11.5195 258.62 11.7304C258.363 11.9413 258.164 12.1789 258.024 12.4431C257.884 12.7074 257.814 12.9739 257.814 13.2428H259.096C259.096 13.0851 259.135 12.9345 259.213 12.7908C259.291 12.6471 259.4 12.5208 259.541 12.4118C259.681 12.3029 259.85 12.216 260.047 12.1511C260.245 12.0862 260.463 12.0537 260.702 12.0537C261.222 12.0537 261.614 12.187 261.881 12.4536C262.148 12.7201 262.281 13.0782 262.281 13.5278V14.1189H261.012C260.502 14.1189 260.04 14.1722 259.627 14.2788C259.213 14.3854 258.86 14.543 258.569 14.7516C258.277 14.9602 258.053 15.2187 257.896 15.5269C257.74 15.8352 257.662 16.191 257.662 16.5942C257.662 16.9048 257.722 17.1957 257.841 17.4669C257.961 17.7381 258.13 17.9733 258.348 18.1726C258.566 18.372 258.831 18.5296 259.141 18.6455C259.451 18.7614 259.797 18.8193 260.178 18.8193C260.408 18.8193 260.626 18.795 260.833 18.7463C261.04 18.6976 261.232 18.6304 261.409 18.5446C261.586 18.4589 261.749 18.3592 261.898 18.2457C262.048 18.1321 262.182 18.0127 262.302 17.8876C262.32 18.0405 262.343 18.1877 262.37 18.3291ZM261.012 17.6025C260.81 17.6674 260.594 17.6998 260.364 17.6998C260.13 17.6998 259.924 17.6662 259.747 17.599C259.571 17.5318 259.421 17.4414 259.299 17.3278C259.178 17.2142 259.087 17.0787 259.027 16.921C258.967 16.7634 258.937 16.5942 258.937 16.4135C258.937 15.9499 259.135 15.6034 259.53 15.3739C259.926 15.1445 260.489 15.0298 261.219 15.0298H262.281V16.5734C262.212 16.7171 262.117 16.8562 261.995 16.9906C261.873 17.125 261.729 17.2444 261.564 17.3487C261.398 17.453 261.215 17.5376 261.012 17.6025Z" fill="#000000"/>
<path d="M267 18.6803H265.725V8H267V18.6803Z" fill="#000000"/>
<path d="M180.323 23.9833L183.604 32.2438L186.886 23.9833H188.602V34.1073H187.279V30.1648L187.403 25.9093L184.108 34.1073H183.094L179.806 25.9302L179.937 30.1648V34.1073H178.613V23.9833H180.323Z" fill="#000000"/>
<path fill-rule="evenodd" clip-rule="evenodd" d="M190.699 28.7568C190.54 29.2227 190.461 29.7291 190.461 30.2761V30.4291C190.461 30.9761 190.54 31.4825 190.699 31.9484C190.857 32.4142 191.084 32.8175 191.378 33.1582C191.672 33.4989 192.028 33.7655 192.446 33.9579C192.865 34.1502 193.336 34.2464 193.86 34.2464C194.383 34.2464 194.855 34.1502 195.273 33.9579C195.691 33.7655 196.047 33.4989 196.341 33.1582C196.635 32.8175 196.861 32.4142 197.017 31.9484C197.173 31.4825 197.251 30.9761 197.251 30.4291V30.2761C197.251 29.7291 197.173 29.2227 197.017 28.7568C196.861 28.2909 196.635 27.8865 196.341 27.5434C196.047 27.2004 195.69 26.9316 195.269 26.7369C194.849 26.5422 194.374 26.4448 193.846 26.4448C193.326 26.4448 192.858 26.5422 192.439 26.7369C192.021 26.9316 191.666 27.2004 191.374 27.5434C191.083 27.8865 190.857 28.2909 190.699 28.7568ZM191.874 31.4929C191.787 31.1592 191.743 30.8045 191.743 30.4291V30.2761C191.743 29.9052 191.787 29.5518 191.874 29.2157C191.961 28.8796 192.094 28.5853 192.271 28.3326C192.447 28.08 192.667 27.8784 192.929 27.7277C193.191 27.5771 193.496 27.5017 193.846 27.5017C194.2 27.5017 194.51 27.5771 194.776 27.7277C195.043 27.8784 195.265 28.08 195.442 28.3326C195.619 28.5853 195.752 28.8796 195.841 29.2157C195.931 29.5518 195.976 29.9052 195.976 30.2761V30.4291C195.976 30.8045 195.931 31.1592 195.841 31.4929C195.752 31.8267 195.62 32.1199 195.445 32.3725C195.27 32.6251 195.05 32.8256 194.783 32.974C194.517 33.1223 194.209 33.1965 193.86 33.1965C193.506 33.1965 193.197 33.1223 192.932 32.974C192.668 32.8256 192.447 32.6251 192.271 32.3725C192.094 32.1199 191.961 31.8267 191.874 31.4929Z" fill="#000000"/>
<path d="M200.295 34.1073H199.02V23.427H200.295V34.1073Z" fill="#000000"/>
<path fill-rule="evenodd" clip-rule="evenodd" d="M204.08 33.9752C204.5 34.156 204.97 34.2464 205.49 34.2464C205.862 34.2464 206.195 34.2059 206.489 34.1247C206.783 34.0436 207.044 33.9347 207.272 33.7979C207.499 33.6612 207.698 33.5059 207.868 33.3321C208.038 33.1582 208.183 32.9786 208.302 32.7932L207.523 32.1813C207.289 32.4872 207.015 32.7329 206.703 32.9183C206.39 33.1038 206.009 33.1965 205.559 33.1965C205.218 33.1965 204.914 33.1316 204.645 33.0018C204.376 32.872 204.146 32.6958 203.956 32.4733C203.765 32.2508 203.618 31.9889 203.515 31.6876C203.411 31.3863 203.355 31.0618 203.346 30.7141H208.399V30.137C208.399 29.6086 208.339 29.1195 208.219 28.6699C208.1 28.2202 207.915 27.8308 207.665 27.5017C207.414 27.1726 207.096 26.9142 206.71 26.7264C206.324 26.5387 205.864 26.4448 205.331 26.4448C204.908 26.4448 204.501 26.5317 204.111 26.7056C203.72 26.8794 203.373 27.1309 203.07 27.46C202.767 27.7891 202.524 28.1947 202.343 28.6768C202.161 29.1589 202.07 29.7059 202.07 30.3178V30.6098C202.07 31.1383 202.151 31.625 202.312 32.07C202.472 32.5151 202.702 32.8986 203.001 33.2208C203.3 33.543 203.659 33.7945 204.08 33.9752ZM204.621 27.6443C204.837 27.5492 205.074 27.5017 205.331 27.5017C205.657 27.5017 205.931 27.562 206.151 27.6825C206.372 27.803 206.552 27.9606 206.693 28.1553C206.833 28.35 206.936 28.5702 207.003 28.8159C207.069 29.0616 207.11 29.3096 207.123 29.5599V29.6572H203.387C203.428 29.3096 203.505 29.0013 203.618 28.7325C203.731 28.4636 203.872 28.2388 204.042 28.058C204.212 27.8772 204.405 27.7393 204.621 27.6443Z" fill="#000000"/>
<path d="M212.924 33.1965C213.15 33.1965 213.366 33.1594 213.572 33.0852C213.779 33.0111 213.962 32.9091 214.12 32.7793C214.279 32.6495 214.408 32.4954 214.506 32.3169C214.605 32.1384 214.664 31.9449 214.682 31.7363H215.889C215.87 32.07 215.779 32.3887 215.616 32.6924C215.453 32.996 215.238 33.2625 214.972 33.492C214.705 33.7214 214.396 33.9046 214.045 34.0413C213.693 34.178 213.32 34.2464 212.924 34.2464C212.364 34.2464 211.875 34.1456 211.459 33.944C211.043 33.7423 210.698 33.47 210.422 33.1269C210.146 32.7839 209.941 32.3853 209.805 31.931C209.669 31.4767 209.602 30.9969 209.602 30.4916V30.1996C209.602 29.6943 209.669 29.2146 209.805 28.7603C209.941 28.306 210.146 27.9073 210.422 27.5643C210.698 27.2213 211.042 26.9489 211.456 26.7473C211.87 26.5456 212.357 26.4448 212.917 26.4448C213.354 26.4448 213.75 26.5144 214.107 26.6534C214.463 26.7925 214.771 26.9837 215.03 27.2271C215.29 27.4704 215.493 27.759 215.64 28.0928C215.787 28.4265 215.87 28.7858 215.889 29.1705H214.682C214.664 28.9387 214.61 28.722 214.52 28.5204C214.431 28.3187 214.31 28.1426 214.158 27.9919C214.007 27.8413 213.826 27.7219 213.617 27.6338C213.408 27.5458 213.175 27.5017 212.917 27.5017C212.522 27.5017 212.195 27.5805 211.935 27.7381C211.675 27.8957 211.466 28.1032 211.308 28.3605C211.149 28.6177 211.038 28.9075 210.973 29.2296C210.909 29.5518 210.877 29.8751 210.877 30.1996V30.4916C210.877 30.8254 210.909 31.1534 210.973 31.4755C211.038 31.7977 211.148 32.0863 211.304 32.3412C211.461 32.5962 211.67 32.8025 211.932 32.9601C212.194 33.1177 212.524 33.1965 212.924 33.1965Z" fill="#000000"/>
<path d="M221.986 33.3633C221.752 33.6415 221.455 33.8582 221.097 34.0135C220.738 34.1688 220.306 34.2464 219.801 34.2464C219.433 34.2464 219.1 34.1942 218.801 34.0899C218.502 33.9856 218.245 33.8211 218.029 33.5963C217.813 33.3714 217.646 33.0817 217.529 32.7271C217.412 32.3725 217.354 31.9449 217.354 31.4442V26.5839H218.629V31.4581C218.629 31.7965 218.668 32.0758 218.746 32.296C218.824 32.5162 218.928 32.69 219.056 32.8175C219.185 32.945 219.332 33.033 219.497 33.0817C219.663 33.1304 219.833 33.1547 220.008 33.1547C220.527 33.1547 220.944 33.0551 221.259 32.8557C221.574 32.6564 221.805 32.3899 221.952 32.0561V26.5839H223.227V34.1073H222.014L221.986 33.3633Z" fill="#000000"/>
<path d="M226.608 34.1073H225.333V23.427H226.608V34.1073Z" fill="#000000"/>
<path fill-rule="evenodd" clip-rule="evenodd" d="M233.203 33.7562C233.23 33.8976 233.267 34.0146 233.313 34.1074H234.65V33.9961C234.563 33.7921 234.497 33.5499 234.454 33.2695C234.41 32.989 234.388 32.7213 234.388 32.4664V28.9689C234.388 28.547 234.319 28.1785 234.181 27.8633C234.044 27.5481 233.853 27.285 233.609 27.0741C233.366 26.8632 233.073 26.7056 232.73 26.6013C232.388 26.497 232.015 26.4448 231.61 26.4448C231.16 26.4448 230.752 26.5109 230.386 26.643C230.021 26.7751 229.71 26.9466 229.452 27.1575C229.195 27.3685 228.996 27.606 228.856 27.8703C228.716 28.1345 228.646 28.401 228.646 28.6699H229.928C229.928 28.5123 229.967 28.3616 230.045 28.2179C230.123 28.0742 230.232 27.9479 230.373 27.839C230.513 27.73 230.682 27.6431 230.879 27.5782C231.077 27.5133 231.295 27.4809 231.534 27.4809C232.054 27.4809 232.447 27.6141 232.713 27.8807C232.98 28.1472 233.113 28.5053 233.113 28.955V29.546H231.844C231.334 29.546 230.872 29.5993 230.459 29.7059C230.045 29.8125 229.692 29.9701 229.401 30.1787C229.109 30.3873 228.885 30.6458 228.729 30.954C228.572 31.2623 228.494 31.6181 228.494 32.0214C228.494 32.3319 228.554 32.6228 228.673 32.894C228.793 33.1652 228.962 33.4004 229.18 33.5998C229.398 33.7991 229.663 33.9567 229.973 34.0726C230.283 34.1885 230.629 34.2464 231.01 34.2464C231.24 34.2464 231.458 34.2221 231.665 34.1734C231.872 34.1247 232.064 34.0575 232.241 33.9718C232.418 33.886 232.581 33.7863 232.73 33.6728C232.88 33.5592 233.014 33.4398 233.134 33.3147C233.152 33.4677 233.175 33.6148 233.203 33.7562ZM231.844 33.0296C231.642 33.0945 231.426 33.1269 231.196 33.1269C230.962 33.1269 230.756 33.0933 230.579 33.0261C230.403 32.9589 230.253 32.8685 230.131 32.7549C230.01 32.6414 229.919 32.5058 229.859 32.3482C229.799 32.1906 229.769 32.0214 229.769 31.8406C229.769 31.377 229.967 31.0305 230.362 30.8011C230.758 30.5716 231.321 30.4569 232.051 30.4569H233.113V32.0005C233.044 32.1442 232.949 32.2833 232.827 32.4177C232.705 32.5521 232.561 32.6715 232.396 32.7758C232.231 32.8801 232.047 32.9647 231.844 33.0296Z" fill="#000000"/>
<path d="M240.052 27.7381C239.941 27.7196 239.839 27.7068 239.745 27.6999C239.651 27.6929 239.544 27.6895 239.424 27.6895C238.983 27.6895 238.624 27.7868 238.345 27.9815C238.067 28.1762 237.859 28.4381 237.722 28.7672V34.1074H236.446V26.5839H237.687L237.708 27.4531C237.901 27.1425 238.142 26.8968 238.432 26.716C238.721 26.5352 239.073 26.4448 239.486 26.4448C239.578 26.4448 239.684 26.4553 239.804 26.4761C239.923 26.497 240.006 26.519 240.052 26.5422V27.7381Z" fill="#000000"/>
<path d="M183.963 46.9755C183.963 46.7391 183.927 46.5305 183.856 46.3497C183.785 46.1689 183.659 46.0032 183.477 45.8525C183.295 45.7019 183.051 45.5605 182.743 45.4284C182.435 45.2963 182.044 45.1607 181.571 45.0216C181.075 44.8779 180.625 44.7145 180.223 44.5314C179.821 44.3483 179.479 44.1374 179.196 43.8987C178.913 43.6599 178.696 43.3876 178.545 43.0816C178.393 42.7757 178.317 42.4257 178.317 42.0317C178.317 41.6377 178.399 41.2726 178.562 40.9366C178.725 40.6005 178.956 40.3084 179.255 40.0604C179.553 39.8124 179.912 39.6189 180.33 39.4798C180.748 39.3408 181.215 39.2712 181.729 39.2712C182.295 39.2712 182.798 39.357 183.239 39.5285C183.68 39.7 184.051 39.9272 184.353 40.2099C184.654 40.4927 184.882 40.8195 185.038 41.1904C185.195 41.5612 185.273 41.9436 185.273 42.3376H183.942C183.942 42.0549 183.898 41.793 183.808 41.5519C183.718 41.3109 183.582 41.1023 183.398 40.9261C183.214 40.75 182.984 40.6132 182.708 40.5159C182.433 40.4185 182.106 40.3699 181.729 40.3699C181.376 40.3699 181.068 40.4116 180.806 40.495C180.544 40.5785 180.328 40.6932 180.158 40.8392C179.988 40.9852 179.861 41.1579 179.779 41.3572C179.696 41.5566 179.654 41.7744 179.654 42.0108C179.654 42.2241 179.699 42.4188 179.789 42.5949C179.879 42.7711 180.018 42.9333 180.206 43.0816C180.394 43.23 180.637 43.3667 180.933 43.4919C181.23 43.6171 181.585 43.7376 181.998 43.8535C182.568 44.0157 183.06 44.1953 183.474 44.3923C183.887 44.5894 184.228 44.813 184.497 45.0633C184.766 45.3137 184.966 45.5941 185.097 45.9047C185.228 46.2153 185.293 46.5676 185.293 46.9616C185.293 47.3741 185.211 47.7473 185.045 48.0811C184.88 48.4148 184.644 48.6999 184.339 48.9363C184.033 49.1727 183.665 49.3547 183.236 49.4822C182.806 49.6096 182.327 49.6734 181.798 49.6734C181.49 49.6734 181.183 49.6444 180.875 49.5865C180.567 49.5285 180.271 49.4416 179.989 49.3257C179.706 49.2098 179.444 49.0661 179.203 48.8946C178.962 48.7231 178.751 48.5238 178.572 48.2966C178.393 48.0695 178.253 47.8145 178.152 47.5318C178.051 47.249 178 46.9384 178 46.6H179.33C179.33 46.9477 179.398 47.2455 179.534 47.4935C179.669 47.7415 179.851 47.9466 180.078 48.1089C180.306 48.2711 180.568 48.3905 180.864 48.467C181.161 48.5435 181.472 48.5817 181.798 48.5817C182.497 48.5817 183.032 48.438 183.405 48.1506C183.777 47.8632 183.963 47.4715 183.963 46.9755Z" fill="#000000"/>
<path d="M189.84 48.6235C190.066 48.6235 190.282 48.5864 190.488 48.5122C190.695 48.4381 190.878 48.3361 191.036 48.2063C191.195 48.0765 191.324 47.9224 191.422 47.7439C191.521 47.5654 191.58 47.3719 191.598 47.1633H192.805C192.786 47.497 192.695 47.8157 192.532 48.1194C192.369 48.423 192.154 48.6895 191.888 48.919C191.621 49.1485 191.312 49.3316 190.961 49.4683C190.609 49.6051 190.236 49.6734 189.84 49.6734C189.28 49.6734 188.791 49.5726 188.375 49.371C187.96 49.1693 187.614 48.897 187.338 48.5539C187.062 48.2109 186.857 47.8123 186.721 47.358C186.585 46.9037 186.518 46.4239 186.518 45.9186V45.6266C186.518 45.1213 186.585 44.6416 186.721 44.1873C186.857 43.733 187.062 43.3343 187.338 42.9913C187.614 42.6483 187.958 42.3759 188.372 42.1743C188.786 41.9726 189.273 41.8718 189.833 41.8718C190.27 41.8718 190.666 41.9414 191.023 42.0804C191.379 42.2195 191.687 42.4107 191.946 42.6541C192.206 42.8974 192.409 43.186 192.556 43.5198C192.703 43.8535 192.786 44.2128 192.805 44.5975H191.598C191.58 44.3657 191.526 44.149 191.436 43.9474C191.347 43.7457 191.226 43.5696 191.074 43.4189C190.923 43.2683 190.742 43.1489 190.533 43.0608C190.324 42.9728 190.091 42.9287 189.833 42.9287C189.438 42.9287 189.111 43.0075 188.851 43.1651C188.591 43.3227 188.382 43.5302 188.224 43.7875C188.065 44.0447 187.954 44.3345 187.889 44.6566C187.825 44.9788 187.793 45.3021 187.793 45.6266V45.9186C187.793 46.2524 187.825 46.5804 187.889 46.9025C187.954 47.2247 188.064 47.5133 188.22 47.7682C188.377 48.0232 188.586 48.2295 188.848 48.3871C189.11 48.5447 189.44 48.6235 189.84 48.6235Z" fill="#000000"/>
<path fill-rule="evenodd" clip-rule="evenodd" d="M194.493 39.4868C194.367 39.6305 194.304 39.8066 194.304 40.0152C194.304 40.2238 194.367 40.3977 194.493 40.5367C194.62 40.6758 194.807 40.7453 195.055 40.7453C195.303 40.7453 195.492 40.6758 195.62 40.5367C195.749 40.3977 195.813 40.2238 195.813 40.0152C195.813 39.8066 195.749 39.6305 195.62 39.4868C195.492 39.3431 195.303 39.2712 195.055 39.2712C194.807 39.2712 194.62 39.3431 194.493 39.4868ZM194.407 49.5343H195.682V42.0108H194.407V49.5343Z" fill="#000000"/>
<path fill-rule="evenodd" clip-rule="evenodd" d="M199.468 49.4022C199.888 49.583 200.358 49.6734 200.877 49.6734C201.25 49.6734 201.583 49.6329 201.877 49.5517C202.171 49.4706 202.432 49.3617 202.659 49.2249C202.887 49.0882 203.086 48.9329 203.256 48.7591C203.426 48.5852 203.57 48.4056 203.69 48.2202L202.911 47.6083C202.677 47.9142 202.403 48.1599 202.091 48.3453C201.778 48.5308 201.397 48.6235 200.946 48.6235C200.606 48.6235 200.302 48.5586 200.033 48.4288C199.764 48.299 199.534 48.1228 199.343 47.9003C199.153 47.6778 199.006 47.4159 198.902 47.1146C198.799 46.8133 198.743 46.4888 198.733 46.1412H203.786V45.564C203.786 45.0356 203.727 44.5465 203.607 44.0969C203.488 43.6472 203.303 43.2578 203.052 42.9287C202.802 42.5996 202.483 42.3412 202.097 42.1534C201.711 41.9657 201.252 41.8718 200.719 41.8718C200.296 41.8718 199.889 41.9587 199.499 42.1326C199.108 42.3064 198.761 42.5579 198.458 42.887C198.154 43.2161 197.912 43.6217 197.73 44.1038C197.549 44.5859 197.458 45.1329 197.458 45.7448V46.0369C197.458 46.5653 197.538 47.052 197.699 47.497C197.86 47.9421 198.09 48.3256 198.389 48.6478C198.687 48.97 199.047 49.2215 199.468 49.4022ZM200.009 43.0713C200.225 42.9762 200.461 42.9287 200.719 42.9287C201.045 42.9287 201.318 42.989 201.539 43.1095C201.76 43.23 201.94 43.3876 202.08 43.5823C202.22 43.777 202.324 43.9972 202.39 44.2429C202.457 44.4886 202.497 44.7366 202.511 44.9869V45.0842H198.775C198.816 44.7366 198.893 44.4283 199.006 44.1595C199.118 43.8906 199.26 43.6658 199.43 43.485C199.6 43.3042 199.793 43.1663 200.009 43.0713Z" fill="#000000"/>
<path d="M206.527 42.0109L206.568 42.9565C206.835 42.6181 207.156 42.3528 207.533 42.1604C207.91 41.968 208.333 41.8718 208.802 41.8718C209.165 41.8718 209.493 41.9217 209.787 42.0213C210.082 42.121 210.332 42.2809 210.539 42.5011C210.746 42.7213 210.905 43.0041 211.018 43.3494C211.131 43.6947 211.187 44.1131 211.187 44.6045V49.5344H209.911V44.5906C209.911 44.2985 209.879 44.0494 209.815 43.8431C209.751 43.6368 209.655 43.4688 209.529 43.339C209.403 43.2092 209.246 43.1141 209.06 43.0539C208.874 42.9936 208.659 42.9635 208.416 42.9635C208.002 42.9635 207.639 43.0747 207.326 43.2973C207.014 43.5198 206.77 43.8118 206.596 44.1734V49.5344H205.32V42.0109H206.527Z" fill="#000000"/>
<path d="M216.161 48.6235C216.386 48.6235 216.602 48.5864 216.809 48.5122C217.015 48.4381 217.198 48.3361 217.357 48.2063C217.515 48.0765 217.644 47.9224 217.743 47.7439C217.842 47.5654 217.9 47.3719 217.919 47.1633H219.125C219.107 47.497 219.016 47.8157 218.853 48.1194C218.689 48.423 218.475 48.6895 218.208 48.919C217.942 49.1485 217.632 49.3316 217.281 49.4683C216.929 49.6051 216.556 49.6734 216.161 49.6734C215.6 49.6734 215.112 49.5726 214.696 49.371C214.28 49.1693 213.934 48.897 213.658 48.5539C213.382 48.2109 213.177 47.8123 213.041 47.358C212.906 46.9037 212.838 46.4239 212.838 45.9186V45.6266C212.838 45.1213 212.906 44.6416 213.041 44.1873C213.177 43.733 213.382 43.3343 213.658 42.9913C213.934 42.6483 214.279 42.3759 214.692 42.1743C215.106 41.9726 215.593 41.8718 216.154 41.8718C216.59 41.8718 216.987 41.9414 217.343 42.0804C217.699 42.2195 218.007 42.4107 218.267 42.6541C218.526 42.8974 218.73 43.186 218.877 43.5198C219.024 43.8535 219.107 44.2128 219.125 44.5975H217.919C217.9 44.3657 217.846 44.149 217.757 43.9474C217.667 43.7457 217.546 43.5696 217.395 43.4189C217.243 43.2683 217.063 43.1489 216.853 43.0608C216.644 42.9728 216.411 42.9287 216.154 42.9287C215.759 42.9287 215.431 43.0075 215.171 43.1651C214.912 43.3227 214.703 43.5302 214.544 43.7875C214.386 44.0447 214.274 44.3345 214.21 44.6566C214.145 44.9788 214.113 45.3021 214.113 45.6266V45.9186C214.113 46.2524 214.145 46.5804 214.21 46.9025C214.274 47.2247 214.384 47.5133 214.541 47.7682C214.697 48.0232 214.906 48.2295 215.168 48.3871C215.43 48.5447 215.761 48.6235 216.161 48.6235Z" fill="#000000"/>
<path fill-rule="evenodd" clip-rule="evenodd" d="M222.303 49.4022C222.724 49.583 223.194 49.6734 223.713 49.6734C224.085 49.6734 224.419 49.6329 224.713 49.5517C225.007 49.4706 225.268 49.3617 225.495 49.2249C225.723 49.0882 225.921 48.9329 226.092 48.7591C226.262 48.5852 226.406 48.4056 226.526 48.2202L225.747 47.6083C225.512 47.9142 225.239 48.1599 224.926 48.3453C224.614 48.5308 224.233 48.6235 223.782 48.6235C223.442 48.6235 223.138 48.5586 222.869 48.4288C222.6 48.299 222.37 48.1228 222.179 47.9003C221.989 47.6778 221.842 47.4159 221.738 47.1146C221.635 46.8133 221.578 46.4888 221.569 46.1412H226.622V45.564C226.622 45.0356 226.563 44.5465 226.443 44.0969C226.324 43.6472 226.139 43.2578 225.888 42.9287C225.638 42.5996 225.319 42.3412 224.933 42.1534C224.547 41.9657 224.088 41.8718 223.555 41.8718C223.132 41.8718 222.725 41.9587 222.334 42.1326C221.944 42.3064 221.597 42.5579 221.294 42.887C220.99 43.2161 220.748 43.6217 220.566 44.1038C220.385 44.5859 220.294 45.1329 220.294 45.7448V46.0369C220.294 46.5653 220.374 47.052 220.535 47.497C220.696 47.9421 220.926 48.3256 221.225 48.6478C221.523 48.97 221.883 49.2215 222.303 49.4022ZM222.845 43.0713C223.061 42.9762 223.297 42.9287 223.555 42.9287C223.881 42.9287 224.154 42.989 224.375 43.1095C224.596 43.23 224.776 43.3876 224.916 43.5823C225.056 43.777 225.16 43.9972 225.226 44.2429C225.293 44.4886 225.333 44.7366 225.347 44.9869V45.0842H221.611C221.652 44.7366 221.729 44.4283 221.842 44.1595C221.954 43.8906 222.095 43.6658 222.266 43.485C222.436 43.3042 222.629 43.1663 222.845 43.0713Z" fill="#000000"/>
<path d="M232.5 47.5388C232.5 47.3997 232.479 47.2687 232.438 47.1459C232.396 47.0231 232.315 46.9072 232.193 46.7982C232.071 46.6893 231.898 46.5885 231.673 46.4958C231.447 46.4031 231.151 46.3173 230.783 46.2385C230.37 46.1504 229.998 46.0461 229.667 45.9256C229.336 45.8051 229.054 45.6602 228.822 45.491C228.59 45.3218 228.412 45.1213 228.288 44.8896C228.164 44.6578 228.102 44.3866 228.102 44.076C228.102 43.7793 228.167 43.4977 228.298 43.2312C228.429 42.9647 228.614 42.7306 228.853 42.5289C229.092 42.3273 229.382 42.1673 229.722 42.0491C230.062 41.9309 230.441 41.8718 230.859 41.8718C231.305 41.8718 231.704 41.9332 232.055 42.0561C232.407 42.1789 232.706 42.347 232.951 42.5602C233.197 42.7734 233.385 43.0226 233.513 43.3077C233.642 43.5928 233.706 43.8976 233.706 44.222H232.424C232.424 44.0691 232.39 43.9149 232.321 43.7596C232.252 43.6044 232.151 43.4653 232.017 43.3424C231.884 43.2196 231.721 43.1199 231.528 43.0435C231.335 42.967 231.112 42.9287 230.859 42.9287C230.593 42.9287 230.366 42.96 230.18 43.0226C229.994 43.0852 229.841 43.1686 229.722 43.2729C229.602 43.3772 229.515 43.4954 229.46 43.6275C229.405 43.7596 229.377 43.8952 229.377 44.0343C229.377 44.1734 229.4 44.2985 229.446 44.4098C229.492 44.521 229.579 44.6219 229.708 44.7122C229.837 44.8026 230.012 44.8861 230.235 44.9626C230.458 45.0391 230.747 45.1167 231.1 45.1955C231.555 45.3021 231.951 45.4226 232.286 45.5571C232.622 45.6915 232.9 45.848 233.12 46.0264C233.341 46.2049 233.505 46.41 233.613 46.6418C233.721 46.8736 233.775 47.1424 233.775 47.4484C233.775 47.7775 233.707 48.0788 233.572 48.3523C233.436 48.6258 233.242 48.8599 232.989 49.0546C232.737 49.2493 232.433 49.4011 232.079 49.51C231.726 49.619 231.333 49.6734 230.901 49.6734C230.404 49.6734 229.966 49.6039 229.587 49.4648C229.208 49.3258 228.89 49.1415 228.633 48.912C228.375 48.6826 228.18 48.4207 228.047 48.1263C227.913 47.832 227.847 47.5295 227.847 47.2189H229.122C229.136 47.4831 229.199 47.7045 229.312 47.883C229.424 48.0614 229.566 48.2063 229.736 48.3175C229.906 48.4288 230.092 48.5076 230.294 48.5539C230.496 48.6003 230.698 48.6235 230.901 48.6235C231.163 48.6235 231.392 48.5957 231.59 48.54C231.788 48.4844 231.954 48.4079 232.09 48.3106C232.225 48.2132 232.328 48.0985 232.397 47.9664C232.465 47.8343 232.5 47.6917 232.5 47.5388Z" fill="#000000"/>
<path d="M179.944 63.8697H184.7V64.9614H178.613V54.8374H179.944V63.8697Z" fill="#000000"/>
<path fill-rule="evenodd" clip-rule="evenodd" d="M190.564 64.6102C190.591 64.7516 190.628 64.8687 190.674 64.9614H192.012V64.8501C191.924 64.6461 191.859 64.4039 191.815 64.1235C191.771 63.843 191.75 63.5753 191.75 63.3204V59.8229C191.75 59.401 191.681 59.0325 191.543 58.7173C191.405 58.4021 191.214 58.139 190.971 57.9281C190.727 57.7172 190.434 57.5596 190.092 57.4553C189.749 57.351 189.376 57.2988 188.971 57.2988C188.521 57.2988 188.113 57.3649 187.748 57.497C187.382 57.6291 187.071 57.8006 186.814 58.0115C186.556 58.2225 186.358 58.46 186.217 58.7243C186.077 58.9885 186.007 59.255 186.007 59.5239H187.289C187.289 59.3663 187.328 59.2156 187.407 59.0719C187.485 58.9282 187.594 58.8019 187.734 58.693C187.874 58.584 188.043 58.4971 188.241 58.4322C188.438 58.3673 188.657 58.3349 188.896 58.3349C189.415 58.3349 189.808 58.4681 190.074 58.7347C190.341 59.0012 190.474 59.3593 190.474 59.809V60.4H189.206C188.696 60.4 188.234 60.4533 187.82 60.5599C187.407 60.6665 187.054 60.8241 186.762 61.0327C186.47 61.2413 186.246 61.4998 186.09 61.808C185.934 62.1163 185.855 62.4721 185.855 62.8754C185.855 63.186 185.915 63.4768 186.035 63.748C186.154 64.0192 186.323 64.2544 186.541 64.4538C186.76 64.6531 187.024 64.8107 187.334 64.9266C187.644 65.0425 187.99 65.1004 188.372 65.1004C188.601 65.1004 188.82 65.0761 189.027 65.0274C189.233 64.9787 189.425 64.9115 189.602 64.8258C189.779 64.74 189.942 64.6404 190.092 64.5268C190.241 64.4132 190.375 64.2938 190.495 64.1687C190.513 64.3217 190.536 64.4688 190.564 64.6102ZM189.206 63.8836C189.004 63.9485 188.788 63.9809 188.558 63.9809C188.323 63.9809 188.118 63.9473 187.941 63.8801C187.764 63.8129 187.615 63.7225 187.493 63.6089C187.371 63.4954 187.28 63.3598 187.22 63.2022C187.161 63.0446 187.131 62.8754 187.131 62.6946C187.131 62.231 187.328 61.8845 187.724 61.6551C188.119 61.4256 188.682 61.3109 189.413 61.3109H190.474V62.8545C190.405 62.9982 190.31 63.1373 190.188 63.2717C190.066 63.4061 189.923 63.5255 189.757 63.6298C189.592 63.7341 189.408 63.8187 189.206 63.8836Z" fill="#000000"/>
<path fill-rule="evenodd" clip-rule="evenodd" d="M199.929 62.8093C200.058 62.3435 200.122 61.8347 200.122 61.2831V61.1371C200.122 60.5623 200.058 60.0396 199.929 59.5691C199.801 59.0986 199.613 58.6953 199.367 58.3592C199.121 58.0232 198.818 57.7624 198.457 57.577C198.097 57.3916 197.682 57.2989 197.213 57.2989C196.74 57.2989 196.328 57.3823 195.979 57.5492C195.63 57.7161 195.331 57.9548 195.083 58.2654V54.2811H193.808V64.9614H194.98L195.042 64.0922C195.29 64.4167 195.593 64.6659 195.952 64.8397C196.31 65.0135 196.735 65.1005 197.227 65.1005C197.686 65.1005 198.095 65.0054 198.454 64.8154C198.812 64.6253 199.116 64.3599 199.364 64.0192C199.612 63.6785 199.801 63.2752 199.929 62.8093ZM198.743 60.0767C198.812 60.4081 198.847 60.7616 198.847 61.1371V61.2831C198.847 61.6586 198.81 62.012 198.737 62.3435C198.663 62.6749 198.548 62.9635 198.392 63.2092C198.236 63.4548 198.036 63.6495 197.792 63.7932C197.549 63.9369 197.254 64.0088 196.91 64.0088C196.675 64.0088 196.464 63.9787 196.276 63.9184C196.087 63.8581 195.918 63.7747 195.769 63.6681C195.62 63.5615 195.489 63.4363 195.376 63.2926C195.263 63.1489 195.166 62.9936 195.083 62.8267V59.5726C195.161 59.4057 195.255 59.2504 195.366 59.1067C195.476 58.963 195.606 58.8379 195.755 58.7312C195.904 58.6246 196.073 58.5412 196.262 58.4809C196.45 58.4207 196.662 58.3905 196.896 58.3905C197.254 58.3905 197.558 58.4635 197.806 58.6096C198.054 58.7556 198.255 58.9537 198.409 59.2041C198.563 59.4544 198.675 59.7453 198.743 60.0767Z" fill="#000000"/>
<path fill-rule="evenodd" clip-rule="evenodd" d="M201.687 59.6108C201.528 60.0767 201.449 60.5831 201.449 61.1301V61.2831C201.449 61.8301 201.528 62.3365 201.687 62.8024C201.846 63.2682 202.072 63.6715 202.366 64.0122C202.66 64.3529 203.016 64.6195 203.435 64.8119C203.853 65.0042 204.324 65.1004 204.848 65.1004C205.372 65.1004 205.843 65.0042 206.261 64.8119C206.679 64.6195 207.035 64.3529 207.33 64.0122C207.624 63.6715 207.849 63.2682 208.005 62.8024C208.161 62.3365 208.239 61.8301 208.239 61.2831V61.1301C208.239 60.5831 208.161 60.0767 208.005 59.6108C207.849 59.1449 207.624 58.7405 207.33 58.3974C207.035 58.0544 206.678 57.7856 206.258 57.5909C205.837 57.3962 205.363 57.2988 204.834 57.2988C204.315 57.2988 203.846 57.3962 203.428 57.5909C203.009 57.7856 202.654 58.0544 202.363 58.3974C202.071 58.7405 201.846 59.1449 201.687 59.6108ZM202.862 62.3469C202.775 62.0132 202.731 61.6585 202.731 61.2831V61.1301C202.731 60.7593 202.775 60.4058 202.862 60.0697C202.95 59.7336 203.082 59.4393 203.259 59.1866C203.436 58.934 203.655 58.7324 203.917 58.5817C204.179 58.4311 204.485 58.3557 204.834 58.3557C205.188 58.3557 205.498 58.4311 205.765 58.5817C206.031 58.7324 206.253 58.934 206.43 59.1866C206.607 59.4393 206.74 59.7336 206.83 60.0697C206.919 60.4058 206.964 60.7593 206.964 61.1301V61.2831C206.964 61.6585 206.919 62.0132 206.83 62.3469C206.74 62.6807 206.608 62.9739 206.433 63.2265C206.259 63.4792 206.038 63.6796 205.772 63.828C205.505 63.9763 205.197 64.0505 204.848 64.0505C204.494 64.0505 204.185 63.9763 203.921 63.828C203.656 63.6796 203.436 63.4792 203.259 63.2265C203.082 62.9739 202.95 62.6807 202.862 62.3469Z" fill="#000000"/>
<path d="M213.503 58.5921C213.393 58.5736 213.29 58.5609 213.196 58.5539C213.102 58.5469 212.995 58.5435 212.876 58.5435C212.434 58.5435 212.075 58.6408 211.797 58.8355C211.519 59.0302 211.311 59.2921 211.173 59.6212V64.9614H209.897V57.4379H211.138L211.159 58.3071C211.352 57.9965 211.593 57.7508 211.883 57.57C212.172 57.3892 212.524 57.2988 212.938 57.2988C213.029 57.2988 213.135 57.3093 213.255 57.3301C213.374 57.351 213.457 57.373 213.503 57.3962V58.5921Z" fill="#000000"/>
<path fill-rule="evenodd" clip-rule="evenodd" d="M218.953 64.6102C218.98 64.7516 219.017 64.8687 219.063 64.9614H220.4V64.8501C220.313 64.6461 220.247 64.4039 220.204 64.1235C220.16 63.843 220.138 63.5753 220.138 63.3204V59.8229C220.138 59.401 220.069 59.0325 219.931 58.7173C219.794 58.4021 219.603 58.139 219.359 57.9281C219.116 57.7172 218.823 57.5596 218.48 57.4553C218.138 57.351 217.765 57.2988 217.36 57.2988C216.91 57.2988 216.502 57.3649 216.136 57.497C215.771 57.6291 215.46 57.8006 215.202 58.0115C214.945 58.2225 214.746 58.46 214.606 58.7243C214.466 58.9885 214.396 59.255 214.396 59.5239H215.678C215.678 59.3663 215.717 59.2156 215.795 59.0719C215.873 58.9282 215.982 58.8019 216.123 58.693C216.263 58.584 216.432 58.4971 216.629 58.4322C216.827 58.3673 217.045 58.3349 217.284 58.3349C217.804 58.3349 218.197 58.4681 218.463 58.7347C218.73 59.0012 218.863 59.3593 218.863 59.809V60.4H217.594C217.084 60.4 216.622 60.4533 216.209 60.5599C215.795 60.6665 215.442 60.8241 215.151 61.0327C214.859 61.2413 214.635 61.4998 214.479 61.808C214.322 62.1163 214.244 62.4721 214.244 62.8754C214.244 63.186 214.304 63.4768 214.423 63.748C214.543 64.0192 214.712 64.2544 214.93 64.4538C215.148 64.6531 215.413 64.8107 215.723 64.9266C216.033 65.0425 216.379 65.1004 216.76 65.1004C216.99 65.1004 217.208 65.0761 217.415 65.0274C217.622 64.9787 217.814 64.9115 217.991 64.8258C218.168 64.74 218.331 64.6404 218.48 64.5268C218.63 64.4132 218.764 64.2938 218.884 64.1687C218.902 64.3217 218.925 64.4688 218.953 64.6102ZM217.594 63.8836C217.392 63.9485 217.176 63.9809 216.946 63.9809C216.712 63.9809 216.506 63.9473 216.329 63.8801C216.153 63.8129 216.003 63.7225 215.881 63.6089C215.76 63.4954 215.669 63.3598 215.609 63.2022C215.549 63.0446 215.519 62.8754 215.519 62.6946C215.519 62.231 215.717 61.8845 216.112 61.6551C216.508 61.4256 217.071 61.3109 217.801 61.3109H218.863V62.8545C218.794 62.9982 218.699 63.1373 218.577 63.2717C218.455 63.4061 218.311 63.5255 218.146 63.6298C217.981 63.7341 217.797 63.8187 217.594 63.8836Z" fill="#000000"/>
<path d="M223.927 55.6162V57.438H225.32V58.4323H223.927V63.098C223.927 63.2927 223.95 63.4491 223.996 63.5673C224.042 63.6855 224.103 63.7771 224.179 63.842C224.255 63.9069 224.342 63.9497 224.441 63.9706C224.54 63.9915 224.642 64.0019 224.748 64.0019C224.853 64.0019 224.965 63.9915 225.082 63.9706C225.199 63.9497 225.29 63.9324 225.354 63.9184V64.9614C225.253 64.9893 225.122 65.0194 224.961 65.0518C224.801 65.0843 224.605 65.1005 224.375 65.1005C224.141 65.1005 223.919 65.0669 223.71 64.9997C223.501 64.9325 223.318 64.8201 223.162 64.6625C223.006 64.5048 222.882 64.2974 222.79 64.0401C222.698 63.7829 222.652 63.4665 222.652 63.091V58.4323H221.294V57.438H222.652V55.6162H223.927Z" fill="#000000"/>
<path fill-rule="evenodd" clip-rule="evenodd" d="M226.629 59.6108C226.471 60.0767 226.392 60.5831 226.392 61.1301V61.2831C226.392 61.8301 226.471 62.3365 226.629 62.8024C226.788 63.2682 227.014 63.6715 227.308 64.0122C227.603 64.3529 227.959 64.6195 228.377 64.8119C228.795 65.0042 229.266 65.1004 229.79 65.1004C230.314 65.1004 230.785 65.0042 231.203 64.8119C231.622 64.6195 231.978 64.3529 232.272 64.0122C232.566 63.6715 232.791 63.2682 232.947 62.8024C233.104 62.3365 233.182 61.8301 233.182 61.2831V61.1301C233.182 60.5831 233.104 60.0767 232.947 59.6108C232.791 59.1449 232.566 58.7405 232.272 58.3974C231.978 58.0544 231.62 57.7856 231.2 57.5909C230.779 57.3962 230.305 57.2988 229.776 57.2988C229.257 57.2988 228.788 57.3962 228.37 57.5909C227.952 57.7856 227.597 58.0544 227.305 58.3974C227.013 58.7405 226.788 59.1449 226.629 59.6108ZM227.805 62.3469C227.717 62.0132 227.674 61.6585 227.674 61.2831V61.1301C227.674 60.7593 227.717 60.4058 227.805 60.0697C227.892 59.7336 228.024 59.4393 228.201 59.1866C228.378 58.934 228.598 58.7324 228.86 58.5817C229.121 58.4311 229.427 58.3557 229.776 58.3557C230.13 58.3557 230.44 58.4311 230.707 58.5817C230.974 58.7324 231.195 58.934 231.372 59.1866C231.549 59.4393 231.682 59.7336 231.772 60.0697C231.862 60.4058 231.907 60.7593 231.907 61.1301V61.2831C231.907 61.6585 231.862 62.0132 231.772 62.3469C231.682 62.6807 231.55 62.9739 231.376 63.2265C231.201 63.4792 230.98 63.6796 230.714 63.828C230.447 63.9763 230.139 64.0505 229.79 64.0505C229.436 64.0505 229.127 63.9763 228.863 63.828C228.599 63.6796 228.378 63.4792 228.201 63.2265C228.024 62.9739 227.892 62.6807 227.805 62.3469Z" fill="#000000"/>
<path d="M238.445 58.5921C238.335 58.5736 238.233 58.5609 238.138 58.5539C238.044 58.5469 237.937 58.5435 237.818 58.5435C237.377 58.5435 237.017 58.6408 236.739 58.8355C236.461 59.0302 236.253 59.2921 236.115 59.6212V64.9614H234.84V57.4379H236.081L236.101 58.3071C236.294 57.9965 236.536 57.7508 236.825 57.57C237.115 57.3892 237.466 57.2988 237.88 57.2988C237.972 57.2988 238.078 57.3093 238.197 57.3301C238.317 57.351 238.399 57.373 238.445 57.3962V58.5921Z" fill="#000000"/>
<path d="M242.241 63.0771L243.978 57.438H245.343L242.345 66.1227C242.276 66.3081 242.186 66.5097 242.076 66.7276C241.965 66.9455 241.822 67.1483 241.645 67.336C241.468 67.5237 241.255 67.6814 241.007 67.8088C240.759 67.9363 240.467 68 240.132 68C240.081 68 240.021 67.9954 239.952 67.9861C239.883 67.9769 239.815 67.9664 239.746 67.9549C239.677 67.9433 239.612 67.9317 239.553 67.9201C239.493 67.9085 239.447 67.8981 239.415 67.8888V66.8458C239.433 66.8504 239.458 66.8539 239.491 66.8562C239.523 66.8585 239.556 66.8609 239.591 66.8632C239.625 66.8655 239.657 66.8678 239.687 66.8701C239.717 66.8725 239.741 66.8736 239.759 66.8736C239.975 66.8736 240.166 66.8528 240.332 66.811C240.497 66.7693 240.644 66.7009 240.773 66.6059C240.901 66.5109 241.013 66.3846 241.107 66.227C241.201 66.0693 241.287 65.8747 241.366 65.6429L241.648 64.878L238.987 57.438H240.38L242.241 63.0771Z" fill="#000000"/>
<path fill-rule="evenodd" clip-rule="evenodd" d="M2.69235 89.9862H6.53013L7.26226 91.8508H9.26971L5.57364 83.1492H3.68427L0 91.8508H1.96022L2.69235 89.9862ZM4.61714 85.1257L5.92789 88.4572H3.30639L4.61714 85.1257Z" fill="#7D9EF9"/>
<path fill-rule="evenodd" clip-rule="evenodd" d="M17.2288 83.1492H13.4736V91.8508H17.2288C18.1262 91.8508 18.9193 91.6706 19.6082 91.3101C20.297 90.9496 20.8323 90.442 21.2141 89.7873C21.5959 89.1326 21.7869 88.3702 21.7869 87.5C21.7869 86.6298 21.5959 85.8674 21.2141 85.2127C20.8323 84.558 20.297 84.0504 19.6082 83.6899C18.9193 83.3294 18.1262 83.1492 17.2288 83.1492ZM19.1122 89.4703C18.6202 89.9551 17.9609 90.1975 17.1343 90.1975H15.3866V84.8025H17.1343C17.9609 84.8025 18.6202 85.0449 19.1122 85.5297C19.6042 86.0145 19.8502 86.6713 19.8502 87.5C19.8502 88.3287 19.6042 88.9855 19.1122 89.4703Z" fill="#7D9EF9"/>
<path fill-rule="evenodd" clip-rule="evenodd" d="M24.9103 91.4157C25.5991 91.8052 26.3726 92 27.2307 92C28.0888 92 28.8603 91.8052 29.5452 91.4157C30.2301 91.0262 30.7693 90.4896 31.1629 89.8059C31.5565 89.1222 31.7534 88.3536 31.7534 87.5C31.7534 86.6464 31.5565 85.8778 31.1629 85.1941C30.7693 84.5104 30.2301 83.9738 29.5452 83.5843C28.8603 83.1948 28.0888 83 27.2307 83C26.3726 83 25.5991 83.1948 24.9103 83.5843C24.2215 83.9738 23.6822 84.5104 23.2925 85.1941C22.9028 85.8778 22.708 86.6464 22.708 87.5C22.708 88.3536 22.9028 89.1222 23.2925 89.8059C23.6822 90.4896 24.2215 91.0262 24.9103 91.4157ZM28.5532 89.9302C28.1596 90.1664 27.7188 90.2845 27.2307 90.2845C26.7426 90.2845 26.3017 90.1664 25.9081 89.9302C25.5145 89.6941 25.2055 89.3646 24.9812 88.942C24.7568 88.5193 24.6446 88.0387 24.6446 87.5C24.6446 86.9613 24.7568 86.4807 24.9812 86.058C25.2055 85.6354 25.5145 85.3059 25.9081 85.0698C26.3017 84.8336 26.7426 84.7155 27.2307 84.7155C27.7188 84.7155 28.1596 84.8336 28.5532 85.0698C28.9469 85.3059 29.2558 85.6354 29.4802 86.058C29.7046 86.4807 29.8168 86.9613 29.8168 87.5C29.8168 88.0387 29.7046 88.5193 29.4802 88.942C29.2558 89.3646 28.9469 89.6941 28.5532 89.9302Z" fill="#7D9EF9"/>
<path d="M39.5936 90.2348V91.8508H33.1934V83.1492H39.4401V84.7652H35.0945V86.6547H38.9323V88.221H35.0945V90.2348H39.5936Z" fill="#7D9EF9"/>
<path fill-rule="evenodd" clip-rule="evenodd" d="M46.1417 91.4157C46.8306 91.8052 47.604 92 48.4621 92C49.3202 92 50.0917 91.8052 50.7766 91.4157C51.4615 91.0262 52.0008 90.4896 52.3944 89.8059C52.788 89.1222 52.9848 88.3536 52.9848 87.5C52.9848 86.6464 52.788 85.8778 52.3944 85.1941C52.0008 84.5104 51.4615 83.9738 50.7766 83.5843C50.0917 83.1948 49.3202 83 48.4621 83C47.604 83 46.8306 83.1948 46.1417 83.5843C45.4529 83.9738 44.9137 84.5104 44.524 85.1941C44.1343 85.8778 43.9395 86.6464 43.9395 87.5C43.9395 88.3536 44.1343 89.1222 44.524 89.8059C44.9137 90.4896 45.4529 91.0262 46.1417 91.4157ZM49.7847 89.9302C49.3911 90.1664 48.9502 90.2845 48.4621 90.2845C47.974 90.2845 47.5332 90.1664 47.1396 89.9302C46.746 89.6941 46.437 89.3646 46.2126 88.942C45.9882 88.5193 45.8761 88.0387 45.8761 87.5C45.8761 86.9613 45.9882 86.4807 46.2126 86.058C46.437 85.6354 46.746 85.3059 47.1396 85.0698C47.5332 84.8336 47.974 84.7155 48.4621 84.7155C48.9502 84.7155 49.3911 84.8336 49.7847 85.0698C50.1783 85.3059 50.4873 85.6354 50.7117 86.058C50.936 86.4807 51.0482 86.9613 51.0482 87.5C51.0482 88.0387 50.936 88.5193 50.7117 88.942C50.4873 89.3646 50.1783 89.6941 49.7847 89.9302Z" fill="#7D9EF9"/>
<path d="M56.3388 84.7652V87.0649H60.1647V88.6809H56.3388V91.8508H54.4258V83.1492H60.6725V84.7652H56.3388Z" fill="#7D9EF9"/>
<path d="M63.8847 84.7652V87.0649H67.7106V88.6809H63.8847V91.8508H61.9717V83.1492H68.2184V84.7652H63.8847Z" fill="#7D9EF9"/>
<path d="M69.5166 83.1492H71.4296V91.8508H69.5166V83.1492Z" fill="#7D9EF9"/>
<path d="M77.3456 92C76.5032 92 75.7416 91.8073 75.0606 91.422C74.3796 91.0366 73.8443 90.5021 73.4546 89.8184C73.065 89.1347 72.8701 88.3619 72.8701 87.5C72.8701 86.6381 73.065 85.8653 73.4546 85.1816C73.8443 84.4979 74.3796 83.9634 75.0606 83.578C75.7416 83.1927 76.5072 83 77.3574 83C78.0738 83 78.7213 83.1326 79.2999 83.3978C79.8785 83.663 80.3646 84.0442 80.7582 84.5414L79.5301 85.7348C78.9712 85.0552 78.2784 84.7155 77.4518 84.7155C76.9401 84.7155 76.4835 84.8336 76.082 85.0698C75.6806 85.3059 75.3676 85.6354 75.1433 86.058C74.9189 86.4807 74.8067 86.9613 74.8067 87.5C74.8067 88.0387 74.9189 88.5193 75.1433 88.942C75.3676 89.3646 75.6806 89.6941 76.082 89.9302C76.4835 90.1664 76.9401 90.2845 77.4518 90.2845C78.2784 90.2845 78.9712 89.9406 79.5301 89.2528L80.7582 90.4461C80.3646 90.9517 79.8765 91.337 79.294 91.6022C78.7114 91.8674 78.0619 92 77.3456 92Z" fill="#7D9EF9"/>
<path d="M88.4461 90.2348V91.8508H82.0459V83.1492H88.2926V84.7652H83.9471V86.6547H87.7849V88.221H83.9471V90.2348H88.4461Z" fill="#7D9EF9"/>
<path fill-rule="evenodd" clip-rule="evenodd" d="M94.9943 91.4157C95.6831 91.8052 96.4566 92 97.3147 92C98.1728 92 98.9442 91.8052 99.6291 91.4157C100.314 91.0262 100.853 90.4896 101.247 89.8059C101.641 89.1222 101.837 88.3536 101.837 87.5C101.837 86.6464 101.641 85.8778 101.247 85.1941C100.853 84.5104 100.314 83.9738 99.6291 83.5843C98.9442 83.1948 98.1728 83 97.3147 83C96.4566 83 95.6831 83.1948 94.9943 83.5843C94.3055 83.9738 93.7662 84.5104 93.3765 85.1941C92.9868 85.8778 92.792 86.6464 92.792 87.5C92.792 88.3536 92.9868 89.1222 93.3765 89.8059C93.7662 90.4896 94.3055 91.0262 94.9943 91.4157ZM98.6372 89.9302C98.2436 90.1664 97.8028 90.2845 97.3147 90.2845C96.8266 90.2845 96.3857 90.1664 95.9921 89.9302C95.5985 89.6941 95.2895 89.3646 95.0651 88.942C94.8408 88.5193 94.7286 88.0387 94.7286 87.5C94.7286 86.9613 94.8408 86.4807 95.0651 86.058C95.2895 85.6354 95.5985 85.3059 95.9921 85.0698C96.3857 84.8336 96.8266 84.7155 97.3147 84.7155C97.8028 84.7155 98.2436 84.8336 98.6372 85.0698C99.0308 85.3059 99.3398 85.6354 99.5642 86.058C99.7886 86.4807 99.9007 86.9613 99.9007 87.5C99.9007 88.0387 99.7886 88.5193 99.5642 88.942C99.3398 89.3646 99.0308 89.6941 98.6372 89.9302Z" fill="#7D9EF9"/>
<path d="M105.19 84.7652V87.0649H109.016V88.6809H105.19V91.8508H103.277V83.1492H109.524V84.7652H105.19Z" fill="#7D9EF9"/>
<path d="M116.881 92C116.228 92 115.596 91.9068 114.986 91.7203C114.376 91.5338 113.886 91.2914 113.516 90.9931L114.165 89.4765C114.519 89.75 114.941 89.9696 115.429 90.1354C115.917 90.3011 116.405 90.384 116.893 90.384C117.436 90.384 117.838 90.299 118.097 90.1291C118.357 89.9593 118.487 89.7334 118.487 89.4517C118.487 89.2445 118.41 89.0725 118.257 88.9358C118.103 88.799 117.906 88.6892 117.666 88.6064C117.426 88.5235 117.101 88.4323 116.692 88.3329C116.062 88.1754 115.547 88.018 115.145 87.8605C114.744 87.703 114.399 87.4503 114.112 87.1022C113.825 86.7541 113.681 86.2901 113.681 85.7099C113.681 85.2044 113.811 84.7465 114.071 84.3363C114.33 83.9261 114.722 83.6008 115.246 83.3605C115.769 83.1202 116.409 83 117.164 83C117.692 83 118.208 83.0663 118.711 83.1989C119.215 83.3315 119.656 83.5221 120.034 83.7707L119.444 85.2997C118.68 84.8439 117.916 84.616 117.153 84.616C116.617 84.616 116.222 84.7072 115.966 84.8895C115.71 85.0718 115.582 85.3122 115.582 85.6105C115.582 85.9088 115.73 86.1305 116.025 86.2756C116.32 86.4206 116.771 86.5635 117.377 86.7044C118.007 86.8619 118.522 87.0193 118.924 87.1768C119.325 87.3343 119.67 87.5829 119.957 87.9227C120.245 88.2624 120.388 88.7224 120.388 89.3025C120.388 89.7997 120.256 90.2535 119.993 90.6637C119.729 91.0739 119.333 91.3992 118.806 91.6395C118.278 91.8798 117.637 92 116.881 92Z" fill="#7D9EF9"/>
<path d="M125.655 92C124.813 92 124.051 91.8073 123.37 91.422C122.689 91.0366 122.154 90.5021 121.764 89.8184C121.375 89.1347 121.18 88.3619 121.18 87.5C121.18 86.6381 121.375 85.8653 121.764 85.1816C122.154 84.4979 122.689 83.9634 123.37 83.578C124.051 83.1927 124.817 83 125.667 83C126.383 83 127.031 83.1326 127.609 83.3978C128.188 83.663 128.674 84.0442 129.068 84.5414L127.84 85.7348C127.281 85.0552 126.588 84.7155 125.761 84.7155C125.25 84.7155 124.793 84.8336 124.392 85.0698C123.99 85.3059 123.677 85.6354 123.453 86.058C123.228 86.4807 123.116 86.9613 123.116 87.5C123.116 88.0387 123.228 88.5193 123.453 88.942C123.677 89.3646 123.99 89.6941 124.392 89.9302C124.793 90.1664 125.25 90.2845 125.761 90.2845C126.588 90.2845 127.281 89.9406 127.84 89.2528L129.068 90.4461C128.674 90.9517 128.186 91.337 127.604 91.6022C127.021 91.8674 126.372 92 125.655 92Z" fill="#7D9EF9"/>
<path d="M130.354 83.1492H132.267V91.8508H130.354V83.1492Z" fill="#7D9EF9"/>
<path d="M140.628 90.2348V91.8508H134.228V83.1492H140.474V84.7652H136.129V86.6547H139.966V88.221H136.129V90.2348H140.628Z" fill="#7D9EF9"/>
<path d="M149.732 83.1492V91.8508H148.162L144.041 86.5677V91.8508H142.151V83.1492H143.734L147.843 88.4323V83.1492H149.732Z" fill="#7D9EF9"/>
<path d="M155.648 92C154.806 92 154.044 91.8073 153.363 91.422C152.682 91.0366 152.147 90.5021 151.757 89.8184C151.368 89.1347 151.173 88.3619 151.173 87.5C151.173 86.6381 151.368 85.8653 151.757 85.1816C152.147 84.4979 152.682 83.9634 153.363 83.578C154.044 83.1927 154.81 83 155.66 83C156.376 83 157.024 83.1326 157.603 83.3978C158.181 83.663 158.667 84.0442 159.061 84.5414L157.833 85.7348C157.274 85.0552 156.581 84.7155 155.755 84.7155C155.243 84.7155 154.786 84.8336 154.385 85.0698C153.983 85.3059 153.67 85.6354 153.446 86.058C153.222 86.4807 153.109 86.9613 153.109 87.5C153.109 88.0387 153.222 88.5193 153.446 88.942C153.67 89.3646 153.983 89.6941 154.385 89.9302C154.786 90.1664 155.243 90.2845 155.755 90.2845C156.581 90.2845 157.274 89.9406 157.833 89.2528L159.061 90.4461C158.667 90.9517 158.179 91.337 157.597 91.6022C157.014 91.8674 156.365 92 155.648 92Z" fill="#7D9EF9"/>
<path d="M166.749 90.2348V91.8508H160.349V83.1492H166.595V84.7652H162.25V86.6547H166.088V88.221H162.25V90.2348H166.749Z" fill="#7D9EF9"/>
<path d="M175.286 92C174.105 92 173.186 91.6561 172.529 90.9682C171.872 90.2804 171.543 89.2983 171.543 88.0221V83.1492H173.456V87.9475C173.456 89.5055 174.07 90.2845 175.298 90.2845C175.896 90.2845 176.353 90.096 176.668 89.7189C176.983 89.3418 177.14 88.7514 177.14 87.9475V83.1492H179.03V88.0221C179.03 89.2983 178.701 90.2804 178.044 90.9682C177.386 91.6561 176.467 92 175.286 92Z" fill="#7D9EF9"/>
<path d="M183.635 92C182.982 92 182.35 91.9068 181.74 91.7203C181.13 91.5338 180.64 91.2914 180.27 90.9931L180.919 89.4765C181.273 89.75 181.694 89.9696 182.183 90.1354C182.671 90.3011 183.159 90.384 183.647 90.384C184.19 90.384 184.591 90.299 184.851 90.1291C185.111 89.9593 185.241 89.7334 185.241 89.4517C185.241 89.2445 185.164 89.0725 185.011 88.9358C184.857 88.799 184.66 88.6892 184.42 88.6064C184.18 88.5235 183.855 88.4323 183.446 88.3329C182.816 88.1754 182.301 88.018 181.899 87.8605C181.498 87.703 181.153 87.4503 180.866 87.1022C180.579 86.7541 180.435 86.2901 180.435 85.7099C180.435 85.2044 180.565 84.7465 180.825 84.3363C181.084 83.9261 181.476 83.6008 181.999 83.3605C182.523 83.1202 183.163 83 183.918 83C184.446 83 184.961 83.0663 185.465 83.1989C185.969 83.3315 186.41 83.5221 186.788 83.7707L186.197 85.2997C185.434 84.8439 184.67 84.616 183.907 84.616C183.371 84.616 182.976 84.7072 182.72 84.8895C182.464 85.0718 182.336 85.3122 182.336 85.6105C182.336 85.9088 182.484 86.1305 182.779 86.2756C183.074 86.4206 183.525 86.5635 184.131 86.7044C184.761 86.8619 185.276 87.0193 185.678 87.1768C186.079 87.3343 186.424 87.5829 186.711 87.9227C186.998 88.2624 187.142 88.7224 187.142 89.3025C187.142 89.7997 187.01 90.2535 186.747 90.6637C186.483 91.0739 186.087 91.3992 185.56 91.6395C185.032 91.8798 184.391 92 183.635 92Z" fill="#7D9EF9"/>
<path d="M194.853 90.2348V91.8508H188.453V83.1492H194.7V84.7652H190.354V86.6547H194.192V88.221H190.354V90.2348H194.853Z" fill="#7D9EF9"/>
<path fill-rule="evenodd" clip-rule="evenodd" d="M200.048 89.4268L201.643 91.8508H203.697L201.843 89.0539C202.387 88.8052 202.806 88.4468 203.101 87.9786C203.396 87.5104 203.544 86.953 203.544 86.3066C203.544 85.6602 203.398 85.1008 203.107 84.6285C202.816 84.1561 202.4 83.7914 201.861 83.5345C201.322 83.2776 200.686 83.1492 199.954 83.1492H196.376V91.8508H198.289V89.4268H199.954H200.048ZM201.158 85.1816C201.458 85.4427 201.607 85.8177 201.607 86.3066C201.607 86.7873 201.458 87.1602 201.158 87.4254C200.859 87.6906 200.422 87.8232 199.848 87.8232H198.289V84.7901H199.848C200.422 84.7901 200.859 84.9206 201.158 85.1816Z" fill="#7D9EF9"/>
<path d="M210.31 84.7652V87.0649H214.136V88.6809H210.31V91.8508H208.397V83.1492H214.644V84.7652H210.31Z" fill="#7D9EF9"/>
<path fill-rule="evenodd" clip-rule="evenodd" d="M217.549 89.9862H221.387L222.119 91.8508H224.126L220.43 83.1492H218.541L214.856 91.8508H216.817L217.549 89.9862ZM219.474 85.1257L220.784 88.4572H218.163L219.474 85.1257Z" fill="#7D9EF9"/>
<path d="M228.944 92C228.102 92 227.34 91.8073 226.659 91.422C225.978 91.0366 225.443 90.5021 225.053 89.8184C224.664 89.1347 224.469 88.3619 224.469 87.5C224.469 86.6381 224.664 85.8653 225.053 85.1816C225.443 84.4979 225.978 83.9634 226.659 83.578C227.34 83.1927 228.106 83 228.956 83C229.672 83 230.32 83.1326 230.899 83.3978C231.477 83.663 231.963 84.0442 232.357 84.5414L231.129 85.7348C230.57 85.0552 229.877 84.7155 229.05 84.7155C228.539 84.7155 228.082 84.8336 227.681 85.0698C227.279 85.3059 226.966 85.6354 226.742 86.058C226.518 86.4807 226.405 86.9613 226.405 87.5C226.405 88.0387 226.518 88.5193 226.742 88.942C226.966 89.3646 227.279 89.6941 227.681 89.9302C228.082 90.1664 228.539 90.2845 229.05 90.2845C229.877 90.2845 230.57 89.9406 231.129 89.2528L232.357 90.4461C231.963 90.9517 231.475 91.337 230.893 91.6022C230.31 91.8674 229.661 92 228.944 92Z" fill="#7D9EF9"/>
<path d="M233.644 83.1492H235.557V91.8508H233.644V83.1492Z" fill="#7D9EF9"/>
<path d="M237.518 83.1492H239.431V90.2099H243.575V91.8508H237.518V83.1492Z" fill="#7D9EF9"/>
<path d="M244.649 83.1492H246.562V91.8508H244.649V83.1492Z" fill="#7D9EF9"/>
<path d="M250.235 84.7901H247.59V83.1492H254.793V84.7901H252.148V91.8508H250.235V84.7901Z" fill="#7D9EF9"/>
<path d="M259.788 88.768V91.8508H257.875V88.7431L254.675 83.1492H256.706L258.914 87.0152L261.122 83.1492H263L259.788 88.768Z" fill="#7D9EF9"/>
</svg>
